<?xml version="1.0" encoding="UTF-8"?>
<svg id="Layer_2" data-name="Layer 2" xmlns="http://www.w3.org/2000/svg" viewBox="0 0 270.03 143.68">
  <defs>
    <style>
      .cls-1 {
        fill: #ffac0d;
        font-size: 30px;
      }

      .cls-1, .cls-2 {
        font-family: FranklinGothic-Demi, 'Franklin Gothic Demi';
        font-weight: 300;
      }

      .cls-3 {
        letter-spacing: 0em;
      }

      .cls-4 {
        letter-spacing: .02em;
      }

      .cls-2 {
        font-size: 19px;
      }

      .cls-5 {
        fill: #65a637;
      }

      .cls-6 {
        letter-spacing: 0em;
      }

      .cls-7 {
        fill: #644601;
      }

      .cls-8 {
        letter-spacing: 0em;
      }

      .cls-9 {
        letter-spacing: 0em;
      }

      .cls-10 {
        letter-spacing: -.01em;
      }
    </style>
  </defs>
  <g id="text">
    <g>
      <g>
        <g>
          <path class="cls-7" d="M72.74,73.93c1.53.18,3.05.36,4.58.54.82.1,1.79.13,2.24-.53.4,1.19-.17,2.55-1.27,3,.71.93.18,2.18-.44,3.07-.2.29-.44.59-.8.63-.42.05-.83-.31-1.04-.71s-.29-.84-.48-1.25c-.82-1.79-3.51-2.69-3.47-4.6"/>
          <path class="cls-7" d="M72.74,74.38c1.45.17,2.9.34,4.36.52,1.02.12,2.16.2,2.84-.72l-.81-.11c.31.99-.09,2.07-1.06,2.5-.21.09-.29.43-.16.61.34.48.32,1,.14,1.54-.15.45-.46,1.1-.84,1.4-.52.4-.89-.56-1-.91-.16-.48-.34-.93-.64-1.34-.52-.71-1.22-1.24-1.87-1.83-.57-.52-1.18-1.11-1.18-1.93,0-.57-.89-.57-.89,0,0,1.78,1.78,2.72,2.85,3.86.27.29.52.6.68.97.24.55.33,1.15.74,1.62.34.39.86.66,1.39.52.48-.13.79-.56,1.05-.96.64-.99,1.09-2.33.34-3.38l-.16.61c1.32-.58,1.89-2.17,1.47-3.51-.12-.39-.59-.41-.81-.11-.25.33-.74.36-1.11.36-.52,0-1.04-.09-1.55-.15-1.26-.15-2.51-.3-3.77-.45-.57-.07-.56.82,0,.89h0Z"/>
        </g>
        <g>
          <path class="cls-7" d="M62.02,35.78c-5.18-3.62-11.69-5.29-17.97-4.61-.48.05-.97.12-1.45.06-.65-.08-1.24-.37-1.86-.58-3.3-1.13-7.31.42-9,3.47-.21.39-.4.8-.71,1.11-.24.25-.55.42-.83.63-1.07.83-1.51,2.38-1.04,3.65.08.22.2.45.41.56.21.11.47.07.7.02,1.84-.46,3.15-2.16,4.96-2.73,2.08-.66,4.31.29,6.5.26,1.35-.02,2.65-.42,3.96-.74,4.42-1.08,9.06-1.27,13.55-.55.88.14,2.23-.15,1.99-1.01"/>
          <path class="cls-7" d="M62.25,35.38c-4.48-3.07-9.82-4.78-15.26-4.82-1.49-.01-3.2.45-4.65.15-1.17-.24-2.18-.8-3.41-.88-2.03-.13-4.08.56-5.67,1.81-.79.62-1.42,1.38-1.92,2.24-.41.71-.74,1.04-1.37,1.58-.37.31-.68.63-.93,1.06-.64,1.1-.99,4.08.95,4.08.96,0,1.97-.71,2.73-1.23,1.27-.87,2.39-1.73,4.01-1.78,1.39-.05,2.76.35,4.14.45,1.56.12,3.03-.25,4.52-.62,3.47-.86,7.02-1.22,10.59-1,1.06.07,6.01,1.38,5.73-1.11-.07-.59-.99-.59-.93,0,.12,1.03-2.91.35-3.39.3-1.33-.14-2.66-.2-4-.18-2.47.03-4.94.33-7.36.88-1.27.29-2.54.72-3.85.81s-2.56-.19-3.83-.36c-2.07-.27-3.67.1-5.38,1.28-.66.46-1.8,1.54-2.65,1.54-.8,0-.92-.77-.87-1.4.07-.91.57-1.59,1.27-2.13,1.44-1.12,1.95-2.92,3.51-3.99,1.7-1.16,3.89-1.64,5.9-1.12.92.24,1.75.7,2.71.75,1.23.07,2.49-.2,3.73-.22,5.43-.05,10.75,1.63,15.21,4.69.49.34.96-.46.47-.8h0Z"/>
        </g>
        <g>
          <path class="cls-7" d="M50.65,39.24c4.15,2.4,8.52,5.02,10.69,9.3.44.87.8,1.82,1.48,2.52,1.95,1.99,5.25,1.01,8.01,1.39,1.59.22,3.07.93,4.46,1.72,1.26.72,2.91,1.5,4.05.6,1.09-.86.78-2.63,0-3.78-.77-1.15-1.91-2.1-2.33-3.43v-.39c-.59-2.88-2.97-5.32-5.84-5.97-.49-.11-1-.18-1.48-.34-1.24-.42-2.18-1.43-3.33-2.06-1.93-1.05-4.27-.92-6.47-.77-3.18.23-6.35.46-9.53.68"/>
          <path class="cls-7" d="M50.42,39.64c2.39,1.38,4.8,2.79,6.89,4.62.98.86,1.89,1.8,2.64,2.87.8,1.13,1.24,2.46,2.02,3.6,1.23,1.79,3.25,2.1,5.27,2.11,1.3,0,2.62-.11,3.9.14,1.55.29,2.88,1.06,4.25,1.79,1.54.82,4.02,1.61,4.92-.52s-1.08-3.98-2.19-5.58c-.61-.88-.61-1.8-.98-2.78s-.97-1.93-1.71-2.72-1.66-1.46-2.66-1.91c-1.14-.51-2.42-.53-3.52-1.1-1.28-.67-2.27-1.71-3.66-2.2s-2.94-.52-4.41-.45c-3.59.17-7.19.5-10.78.76-.59.04-.6.97,0,.93,2.86-.21,5.72-.41,8.58-.62,2.51-.18,5.27-.55,7.53.83.91.56,1.69,1.31,2.68,1.74,1.11.49,2.34.51,3.44,1.05,2,1,3.51,2.89,3.96,5.08.41,2.01,2.35,3.1,2.89,5.04.46,1.66-.69,2.73-2.33,2.22-1.26-.39-2.35-1.23-3.56-1.75-2.09-.91-4.1-.87-6.33-.88-1.03,0-2.15-.02-3.1-.48-1.19-.57-1.68-1.68-2.23-2.79-2.27-4.6-6.72-7.31-11.01-9.8-.52-.3-.98.5-.47.8h0Z"/>
        </g>
        <g>
          <path class="cls-7" d="M27.73,44.34c1.03,1.54,3.48,1.6,4.48,3.16.32.5.45,1.1.69,1.64.99,2.21,3.72,3.07,6.14,3.03,2.42-.04,4.81-.74,7.22-.59,2.46.16,4.87,1.2,7.32.89,1.47-.19,2.95-.85,4.38-.46,1.17.32,2.39,1.33,3.44.71-.64-1.88-3.1-2.42-4.3-4.01-.68-.89-.97-2.13-1.93-2.71-.38-.23-.83-.33-1.22-.53-.72-.37-1.21-1.06-1.78-1.63-1.66-1.62-4.05-2.21-6.31-2.7-1.96-.43-3.93-.84-5.89-1.23-1.13-.23-2.32-.44-3.43-.13-1.02.29-1.87.99-2.84,1.41-1.92.83-4.6,1.24-5.7,3.02"/>
          <path class="cls-7" d="M27.32,44.57c.78,1.03,1.87,1.44,2.99,2.01.94.48,1.49,1,1.88,2.01.22.57.43,1.11.8,1.61,1.69,2.24,4.81,2.59,7.4,2.34,1.95-.19,3.89-.64,5.86-.51s3.71.76,5.6.91c1.98.16,4.06-.97,5.98-.5,1.37.33,2.36,1.29,3.8.66.17-.07.28-.35.21-.52-.55-1.36-1.66-2.05-2.83-2.84-.77-.52-1.4-1.05-1.89-1.85-.37-.61-.63-1.29-1.13-1.82-.54-.56-1.16-.67-1.82-1.02-.9-.48-1.48-1.43-2.27-2.06-1.33-1.05-2.98-1.61-4.61-2.01-2.09-.52-4.21-.93-6.32-1.35-1.67-.34-3.43-.8-5.07-.14-.93.37-1.73.98-2.65,1.36-.73.3-1.49.52-2.23.79-1.36.5-2.62,1.1-3.46,2.32-.34.49.46.96.8.47.89-1.29,2.47-1.75,3.88-2.23s2.48-1.17,3.76-1.75c1.89-.85,4.16-.04,6.08.35,1.78.37,3.58.71,5.33,1.17s3.3,1.07,4.54,2.32c.5.51.95,1.07,1.57,1.45.69.42,1.43.52,1.96,1.2.81,1.03,1.15,2.15,2.21,2.99,1.12.89,2.67,1.48,3.23,2.88l.21-.52c-.93.41-1.89-.35-2.73-.64-.66-.23-1.3-.28-1.99-.22-1.83.18-3.44.76-5.32.48-1.56-.22-3.07-.68-4.65-.81-1.74-.14-3.46.17-5.18.38-2.87.36-6.78.34-8.09-2.83-.41-.99-.71-1.8-1.62-2.43-1.11-.77-2.62-1.02-3.47-2.14-.35-.47-1.16,0-.8.47h0Z"/>
        </g>
        <g>
          <path class="cls-7" d="M73.61,71.5c1.61-.27,3.25-.59,4.65-1.42s2.55-2.27,2.6-3.9c.05-1.63-1.3-3.3-2.93-3.23.32-.32.24-.85.11-1.28-1.23-4.01-5.52-6.83-9.69-6.37-1.87.21-3.73.99-5.56.57-1.62-.37-3.12-1.65-4.74-1.28.62.79,1.48,1.35,2.25,1.99.9.76,1.68,1.64,2.46,2.51,1.16,1.31,2.32,2.61,3.48,3.92.54.6,1.08,1.22,1.44,1.95.29.59.45,1.24.79,1.8.62,1.01,1.75,1.61,2.42,2.59.39.58.62,1.27,1.09,1.78s1.36.77,1.85.27"/>
          <path class="cls-7" d="M73.74,71.95c2.83-.48,6.15-1.35,7.3-4.33.87-2.27-.5-5.07-3.1-5.13l.4.7c.92-1.37-.61-3.6-1.46-4.66-1.29-1.61-3.09-2.8-5.07-3.37-2.29-.66-4.29-.11-6.57.25-1.67.26-2.9-.14-4.42-.78-.96-.41-1.85-.65-2.89-.48-.37.06-.41.54-.2.77.7.82,1.59,1.42,2.4,2.12s1.58,1.56,2.31,2.38c.82.92,1.64,1.85,2.47,2.77.92,1.03,1.95,2.02,2.51,3.3.38.86.67,1.65,1.34,2.34.71.73,1.51,1.29,2.02,2.2.64,1.14,1.8,2.87,3.3,1.77.48-.35.02-1.15-.47-.8-1.22.89-1.97-1.47-2.5-2.15-.43-.55-.97-.97-1.47-1.45-.71-.69-1-1.44-1.39-2.32s-.93-1.55-1.54-2.25c-1.37-1.56-2.75-3.11-4.14-4.65-1.29-1.42-2.95-2.48-4.19-3.92l-.2.77c1.99-.32,3.77,1.42,5.8,1.41s3.84-.85,5.82-.72c1.85.12,3.66.89,5.08,2.08.71.59,1.33,1.28,1.83,2.06.4.63,1.35,2.08.83,2.85-.2.3.07.69.4.7,1.15.02,2.07.88,2.37,1.98.32,1.16-.2,2.36-.97,3.22-1.47,1.65-3.77,2.09-5.85,2.44-.59.1-.34.99.25.89h0Z"/>
        </g>
        <g>
          <path class="cls-7" d="M35.34,56.96c1.73.56,3.46-.67,5.19-1.26,2.18-.75,4.58-.46,6.84.01,2.49.52,4.93,1.24,7.31,2.15,2.96,1.14,6.18,3.06,6.57,6.21,1.56-.28,3.21.99,3.35,2.57,2.17,1.58,3.97,3.66,5.21,6.05-3.99.05-7.98-1.06-11.37-3.14-3.13,1.96-7.45,1.82-10.44-.35-2.23-1.62-3.71-4.2-6.14-5.52-1.12-.61-2.66-1.35-2.41-2.61-1.48-1.03-2.92-2.1-4.31-3.23-.02-.58.74-1.02,1.23-.71"/>
          <path class="cls-7" d="M35.21,57.41c2.29.57,4.12-1.01,6.26-1.5,2.72-.62,5.68.15,8.32.85,3.9,1.04,10.25,2.67,11,7.43.03.18.26.36.45.34,1.36-.15,2.43.61,2.85,1.89.25.76.8.99,1.43,1.54,1.59,1.4,2.88,3.08,3.88,4.95l.4-.7c-3.95,0-7.75-1.05-11.14-3.08-.14-.08-.33-.08-.47,0-3.42,2.04-7.78,1.65-10.76-.99-1.32-1.17-2.39-2.6-3.73-3.74-.59-.5-1.23-.92-1.91-1.3-.81-.45-1.99-.95-1.89-2.05.01-.17-.1-.31-.23-.4-.68-.47-1.35-.95-2.01-1.44-.39-.29-.78-.58-1.16-.88l-.35-.28c-.49-.22-.47-.38.08-.5.56.2.8-.69.25-.89-.83-.3-1.65.16-1.8,1.04-.03.15-.01.34.12.45.73.59,1.47,1.16,2.22,1.73.61.45,1.63.93,1.95,1.6.28.58.32.98.84,1.45s1.2.78,1.81,1.14c3.05,1.75,4.68,5.17,8.01,6.55,1.52.63,3.19.87,4.82.71.78-.07,1.54-.23,2.28-.48.68-.23,1.35-.78,2.02-.59.81.23,1.61.85,2.41,1.18.92.39,1.86.71,2.83.97,1.9.51,3.86.74,5.82.73.36,0,.56-.39.4-.7-.59-1.1-1.27-2.14-2.07-3.11-.86-1.05-2.02-1.79-2.89-2.79-.56-.63-.64-1.51-1.34-2.11-.75-.65-1.68-.94-2.66-.83l.45.34c-.72-4.55-6.02-6.37-9.82-7.55-2.62-.81-5.41-1.58-8.17-1.62-1.27-.02-2.51.16-3.7.62-1.47.57-2.91,1.52-4.54,1.12-.58-.14-.83.75-.25.89h0Z"/>
        </g>
        <g>
          <path class="cls-7" d="M36.53,54.22c-1.25-.37-2.5-.74-3.75-1.11-.52-.16-1.14-.41-1.23-.95-.09-.54.41-1.09.2-1.59-.11-.25-.37-.4-.61-.53-1.57-.84-3.14-1.67-4.7-2.51-1.15-.61-2.33-1.24-3.61-1.49-1.93-.37-3.95.14-5.69,1.06s-3.25,2.2-4.74,3.48c-.6.51-1.26,1.18-1.13,1.96.06.35.27.66.32,1.01.1.73-.5,1.34-.8,2.01-.53,1.19,0,2.75,1.15,3.36.22.12.46.2.71.17.35-.05.62-.32.87-.56,2.66-2.61,6.45-4.01,10.16-3.75.9.06,1.8.22,2.69.09.55-.08,1.09-.26,1.64-.37,2.73-.51,5.72,1.01,8.24-.16"/>
          <path class="cls-7" d="M36.65,53.78l-1.87-.56c-.65-.19-1.58-.3-2.14-.66-1.01-.66,0-1.61-.64-2.45-.54-.71-1.79-1.1-2.55-1.5-1.18-.63-2.36-1.28-3.55-1.89-1.96-1-3.92-1.53-6.11-1.08s-4.21,1.74-5.98,3.16c-1.45,1.16-3.2,2.19-2.9,4.21.15.99-.04,1.35-.44,2.16-.15.31-.27.61-.32.96-.11.74.06,1.52.46,2.16.35.56.94,1.11,1.61,1.24.91.19,1.45-.52,2.06-1.07,1.86-1.66,4.22-2.73,6.68-3.1,1.38-.2,2.69-.07,4.06,0s2.6-.44,3.97-.5c2.49-.1,4.96.92,7.38-.07.54-.22.31-1.12-.25-.89-1.93.79-3.93.23-5.93.07s-3.84.57-5.84.4c-3.57-.3-7.1.58-9.96,2.79-.36.28-.69.66-1.06.9-1.02.67-1.82.2-2.15-.73-.43-1.21.37-1.87.73-2.91.28-.79-.15-1.35-.08-2.13.1-1.08,1.48-1.91,2.28-2.56,1.75-1.43,3.67-2.75,5.92-3.2,2.54-.52,4.63.58,6.81,1.74,1.14.61,2.28,1.22,3.42,1.83.68.36,1.06.66.89,1.45-.07.3-.1.58,0,.88.21.6.77.87,1.34,1.07,1.27.46,2.61.78,3.91,1.17.57.17.82-.72.25-.89h0Z"/>
        </g>
        <g>
          <path class="cls-7" d="M14.45,46.41c.31-1.27.67-2.59.99-3.86.11-.44.23-.9.51-1.27.28-.35.68-.59,1.08-.79,2.45-1.26,5.2-1.91,7.42-3.58.88-.66,1.92-1.54,2.88-1.17-1.18,1.12-1.64,2.92-1.1,4.32.08.2.17.4.16.62-.04.56-.71.89-1.27,1.05-3.53,1.05-7.81,2.25-10.66,4.69"/>
          <path class="cls-7" d="M14.85,46.52c.2-.81.41-1.61.62-2.42.18-.71.3-1.47.58-2.15s.94-1,1.58-1.31c.69-.33,1.39-.62,2.1-.91,1.24-.5,2.49-.99,3.65-1.65.63-.36,1.2-.79,1.78-1.22s1.29-.97,2.05-.74l-.18-.69c-1,.99-1.58,2.4-1.42,3.82.05.4.19.72.29,1.1.14.55-.3.76-.75.92-.73.26-1.49.44-2.23.67-3.09.95-6.25,2.07-8.77,4.17-.41.34.18.92.58.58,2.6-2.18,5.97-3.23,9.17-4.2.99-.3,3.04-.6,2.86-2.05-.04-.35-.23-.67-.3-1.01-.08-.39-.08-.8-.02-1.19.13-.86.55-1.62,1.16-2.23.22-.22.11-.6-.18-.69-1.48-.45-2.69.92-3.82,1.65-1.4.91-2.97,1.49-4.51,2.12-1.18.48-2.91.97-3.62,2.13-.39.64-.5,1.45-.68,2.17-.25.97-.5,1.93-.74,2.9-.13.51.66.73.79.22h0Z"/>
        </g>
        <g>
          <path class="cls-7" d="M46.81,72.75c3.25,1.37,6.84,2.76,10.21,1.7,1.4-.44,2.81-1.3,4.24-.93,1.27.32,2.16,1.56,3.44,1.89.8.21,1.65.02,2.47.03,1.88.02,3.63,1.06,4.91,2.43s2.18,3.05,3.04,4.72c.39.75.77,1.67.33,2.39-.35.56-1.07.75-1.72.88-4.07.84-8.15,1.67-12.22,2.51-.69.14-1.45.27-2.06-.07-.77-.43-.99-1.42-1.27-2.27-1.72-5.3-7.88-7.6-11.54-11.81-.31-.35-.21-1.2.17-.94"/>
          <path class="cls-7" d="M46.68,73.2c2.08.87,4.22,1.74,6.48,2,1.04.12,2.1.12,3.13-.09,1.17-.23,2.22-.84,3.38-1.1,2.32-.53,3.59,1.89,5.83,1.95,1.15.03,2.17-.15,3.3.24,1.28.44,2.36,1.3,3.24,2.31.78.89,1.4,1.92,1.97,2.96.27.49.56,1,.79,1.51.26.55.31.74.21,1.33-.12.74-.4.81-1.08,1.02-2.45.76-5.15,1.06-7.66,1.58-1.22.25-2.44.5-3.67.75-.68.14-1.62.49-2.3.35-.97-.19-1.29-.92-1.58-1.79-.52-1.58-1.3-2.96-2.4-4.2-1.27-1.44-2.81-2.62-4.34-3.78-.9-.68-1.8-1.36-2.66-2.09-.4-.33-.79-.68-1.17-1.03s-1.01-1.27-1.47-1.4c.58.16.82-.73.25-.89-.53-.15-.86.16-.93.68-.12.9.82,1.6,1.38,2.14,1.72,1.65,3.71,2.99,5.56,4.49s3.52,3.05,4.47,5.17c.88,1.98,1.06,4,3.79,3.57,3.33-.53,6.65-1.36,9.95-2.04,1.72-.35,5.27-.42,4.92-3.01-.15-1.12-.93-2.26-1.48-3.22-.69-1.21-1.47-2.4-2.47-3.38-.83-.8-1.8-1.47-2.89-1.88-1.27-.47-2.42-.28-3.73-.33-1.61-.06-2.5-1.46-3.96-1.91s-2.85.26-4.23.74c-3.54,1.22-7.11-.19-10.38-1.56-.55-.23-.79.67-.25.89h0Z"/>
        </g>
        <g>
          <path class="cls-7" d="M12.36,62.65c-.34.31.04.79.46,1.27s1.03.81,1.38,1.35c.2.3.3.65.42.99.64,1.79,1.8,3.4,3.3,4.57.91.71,2.56,1.06,2.94-.03,1.7,1.48,4.28,1.84,6.32.9.57-.26,1.1-.62,1.71-.79.6-.17,1.24-.13,1.87-.1,4.35.24,8.7.48,13.06.72.6.03,1.38-.05,1.55-.62.12-.39-.12-.79-.37-1.11-1.5-1.98-3.6-3.5-5.94-4.31-.37-.13-.77-.26-.99-.57-.19-.26-.22-.61-.31-.92-.28-1.06-1.24-1.92-2.33-2.06-.44-.06-.91-.02-1.3-.23-.45-.24-.67-.74-.96-1.15-.76-1.1-2.15-1.73-3.48-1.58-1.33.16-2.54,1.09-3.02,2.34-.12-.85-.87-1.57-1.72-1.66s-1.74.44-2.04,1.25c.05-.88-.77-1.61-1.63-1.78-.86-.17-1.75.07-2.59.32-1.19.34-2.37.68-3.56,1.02-1.17.34-2.59,1-2.75,2.2"/>
          <path class="cls-7" d="M11.96,62.42c-.65,1.28.99,2.05,1.67,2.88.51.62.68,1.53,1.04,2.25.33.66.73,1.28,1.18,1.86.95,1.2,4.16,4.15,5.41,1.63l-.73.09c1.23,1,2.69,1.57,4.29,1.55,1.99-.02,3.51-1.42,5.46-1.43,2.32-.01,4.68.25,7,.38s4.59.46,6.84.36c1.16-.05,2.13-.81,1.53-2.04-.7-1.42-2.26-2.64-3.56-3.49-.69-.45-1.42-.84-2.18-1.15-.56-.23-1.04-.3-1.4-.79-.28-.38-.32-.81-.53-1.23-.28-.57-.71-1.04-1.25-1.37-.72-.44-1.44-.27-2.18-.55s-1.23-1.5-1.9-2.01-1.43-.8-2.24-.86c-1.8-.14-3.42.96-4.15,2.58l.85.11c-.55-2.32-3.55-2.68-4.61-.53l.86.23c-.19-2.94-3.58-2.27-5.48-1.72s-5.42.93-5.97,3.35c-.13.58.76.83.89.25.37-1.63,2.65-1.94,3.99-2.32s5.48-2.1,5.64.45c.03.42.65.68.86.23.7-1.43,2.54-1.26,2.91.31.09.36.68.48.85.11,1.05-2.34,4.09-2.9,5.7-.76.35.47.59,1.02,1.12,1.32.69.38,1.53.16,2.23.53,1.43.76,1,2.55,2.53,3.19,1.87.79,3.55,1.63,4.99,3.1.21.22.67.57.78.88.59,1.65-.85,1.24-1.58,1.2-1.13-.06-2.26-.12-3.38-.19-2.26-.12-4.51-.25-6.77-.37-1.1-.06-2.25-.23-3.34-.1-.78.1-1.37.45-2.06.78-2.03.97-4.32.78-6.09-.66-.21-.17-.58-.2-.73.09-1.04,2.12-4.3-2.24-4.72-2.99s-.62-1.63-1.05-2.39c-.24-.42-2.15-1.86-1.92-2.31.27-.53-.53-1-.8-.47h0Z"/>
        </g>
        <g>
          <path class="cls-7" d="M10.67,63.26c-1.48.58-2.61,1.98-2.85,3.55.09-.48-.66-.74-1.03-.42s-.39.88-.32,1.36.22.98.09,1.44c-.15.52-.6.88-.94,1.3-1.14,1.39-1.07,3.38-.95,5.17.03.42.11.92.48,1.11.6.31,1.17-.42,1.59-.94,1.05-1.29,2.83-1.74,4.49-1.75,1.66,0,3.3.35,4.96.33.19,0,.39,0,.56-.11.43-.25.34-.94,0-1.29s-.85-.51-1.27-.77c-1.31-.82-1.74-2.63-3.06-3.45-.31-.19-.68-.34-.86-.65-.16-.28-.13-.62-.12-.94.04-1-.12-2-.46-2.94-.2-.54-.93-1.1-1.22-.6"/>
          <path class="cls-7" d="M10.55,62.81c-1.65.69-2.86,2.1-3.17,3.88l.91.12c.03-1.27-1.72-1.28-2.16-.27-.32.73.02,1.42.02,2.17,0,.83-.88,1.37-1.28,2.04-.78,1.34-.78,2.98-.69,4.48.04.59.03,1.32.5,1.76.43.4,1.02.37,1.49.07.59-.37.91-1.03,1.45-1.46.66-.53,1.5-.81,2.32-.95,1.81-.31,3.65.12,5.46.21.62.03,1.44.14,1.87-.42.36-.48.25-1.18-.1-1.63-.44-.56-1.18-.72-1.71-1.16-.58-.48-.95-1.16-1.37-1.77s-.92-1.18-1.59-1.59c-.1-.06-.22-.11-.32-.19-.33-.25-.28-.55-.27-.91,0-.46,0-.91-.07-1.37-.11-.82-.27-1.84-.91-2.44-.42-.39-1.08-.57-1.49-.06-.37.46.28,1.12.66.66.22-.27.67,1.14.72,1.35.16.72.15,1.42.16,2.15.01,1.19.89,1.33,1.62,2.02s1.17,1.69,1.86,2.45c.33.37.72.65,1.16.88.38.2,1.54.95.58,1.1-.66.1-1.43-.06-2.09-.13-.74-.07-1.48-.16-2.22-.19-1.09-.05-2.21.03-3.25.4s-1.76.95-2.46,1.77c-.13.15-.44.58-.66.57-.34-.01-.37-.59-.38-.82-.05-.6-.07-1.2-.05-1.8.02-.65.1-1.3.31-1.91.23-.66.67-1.12,1.1-1.64.4-.48.61-.98.57-1.61-.02-.35-.12-.69-.15-1.03-.01-.12-.02-.26,0-.37.03-.18.46-.7.45-.38-.01.51.82.65.91.12.25-1.43,1.17-2.66,2.53-3.23.54-.23.3-1.12-.25-.89h0Z"/>
        </g>
        <g>
          <path class="cls-7" d="M21.11,76.48c1.17.37,1.68.52,2.86.2.61-.16,1.15-.5,1.72-.77,2.8-1.35,6.29-1.16,8.91.5.38.24.76.52,1.2.61.66.13,1.32-.16,1.96-.38,1.49-.49,3.13-.53,4.64-.09.49.14.98.34,1.3.74.29.36.38.83.58,1.25.72,1.48,2.57,1.92,4.06,2.63,4.49,2.15,6.61,7.72,11.16,9.74-5.98-.12-11.97-.24-17.95-.36-.47,0-.96-.03-1.36-.27-.43-.26-.68-.74-1.02-1.11-1.72-1.88-4.93-.57-7.31-1.5-2.75-1.07-4.06-5.03-7.02-5.06-.36-2.46-2.3-4.61-4.7-5.22-.07-.6.44-1.22.97-.91"/>
          <path class="cls-7" d="M20.99,76.93c1.93.6,3.15.22,4.93-.61,2.01-.94,4.33-1.08,6.45-.42,1.7.53,2.87,1.97,4.74,1.46,1.22-.33,2.31-.71,3.61-.63.66.04,1.58.15,2.16.5.62.37.65.83.93,1.39.72,1.43,2.07,2,3.48,2.6,1.73.73,3.14,1.79,4.44,3.15,2.38,2.47,4.34,5.45,7.53,6.95l.23-.86c-3.99-.08-7.98-.16-11.97-.24-1.96-.04-4.04.12-5.98-.12-.78-.1-1.25-.28-1.74-.86-.18-.21-.34-.43-.55-.62-.41-.37-.91-.61-1.43-.77-1.23-.36-2.55-.22-3.81-.27-1.6-.06-2.76-.58-3.9-1.69-1.58-1.54-2.87-3.61-5.28-3.74l.45.34c-.48-2.67-2.43-4.79-5.03-5.54l.34.45.38-.47c.58.15.82-.74.25-.89-.97-.25-1.49.44-1.55,1.36-.01.2.15.39.34.45,2.31.66,3.96,2.53,4.38,4.89.04.21.26.33.45.34,2.54.14,3.85,3.1,5.75,4.43.98.68,2.08.93,3.25,1,1.47.08,3.27-.26,4.55.63.6.41.89,1.13,1.51,1.52.45.29.95.33,1.47.36,1.96.11,3.94.08,5.91.12,4.07.08,8.14.16,12.21.25.44,0,.66-.66.23-.86-3.34-1.56-5.27-4.79-7.83-7.29-1.2-1.18-2.51-2.1-4.06-2.77-.92-.4-1.97-.73-2.69-1.47-.61-.62-.66-1.54-1.27-2.15-1.16-1.17-3.5-1.18-5-.93-1.36.22-2.42,1-3.77.3-.78-.41-1.48-.86-2.32-1.14-1.73-.58-3.63-.66-5.41-.24-.94.22-1.75.63-2.61,1.03-1.26.59-2.24.58-3.54.18-.57-.18-.82.72-.25.89h0Z"/>
        </g>
        <g>
          <path class="cls-7" d="M72.97,89.74c.58-.12,1.14.39,1.27.97s-.06,1.17-.3,1.71c-.7,1.59-1.84,2.99-3.26,4-.7-1.26-2.12-1.95-3.51-2.31s-2.85-.45-4.22-.91c-.12-.04-.25-.09-.33-.19-.14-.18-.06-.45.05-.66.87-1.56,3.01-1.64,4.74-2.11,1-.27,1.95-.74,2.97-.91s2.2,0,2.87.79"/>
          <path class="cls-7" d="M72.97,90.21c.82-.09.92.85.76,1.44s-.48,1.17-.8,1.7c-.64,1.05-1.5,1.96-2.49,2.68l.63.17c-.82-1.38-2.28-2.13-3.79-2.52-.98-.25-1.98-.37-2.97-.58-.26-.05-1.21-.17-1.25-.41-.04-.29.46-.67.67-.82,1.19-.84,2.83-.85,4.19-1.28,1.51-.48,3.66-1.58,4.99-.13.4.44,1.06-.22.66-.66-.97-1.07-2.5-1.14-3.82-.8-.86.22-1.68.59-2.54.82-.66.18-1.34.29-2.01.46-1.16.29-2.51.82-3.01,2.01-.26.63.01,1.15.63,1.37.84.3,1.75.43,2.63.59,1.78.31,3.83.74,4.82,2.42.12.2.43.31.63.17,1.43-1.04,2.61-2.39,3.35-4,.34-.74.65-1.58.38-2.39-.24-.7-.92-1.24-1.67-1.15-.59.07-.59.99,0,.93h0Z"/>
        </g>
        <g>
          <path class="cls-7" d="M63.12,109.05c1.11-.55,2.1-1.31,2.84-2.31s1.38-2.1,2.32-2.91c.55-.48,1.2-.86,1.61-1.46.85-1.25.31-3.05-.8-4.07-1.1-1.03-2.61-1.47-4.07-1.87-5.43-1.49-10.99-2.85-16.62-2.64-3.2.12-6.54.72-9.52-.45,2.97,2.28,7.26,2.17,10.24,4.44,1.4,1.06,2.39,2.57,3.51,3.93,1.7,2.08,3.73,3.86,5.75,5.63,1.24,1.09,3.61,2.71,4.85,1.62"/>
          <path class="cls-7" d="M63.35,109.45c1.72-.9,2.73-2.12,3.85-3.66.67-.93,1.4-1.58,2.26-2.31.52-.44.96-.93,1.17-1.59,1.09-3.45-2.92-5.19-5.48-5.9-4.22-1.17-8.52-2.23-12.9-2.57s-9.08,1-13.25-.52c-.53-.19-.75.56-.36.85,2.09,1.53,4.63,2.01,7.03,2.83,1.36.47,2.66,1.07,3.73,2.05s1.87,2.15,2.76,3.25c1.84,2.27,4.05,4.34,6.33,6.16,1.26,1.01,3.37,2.46,4.96,1.31.48-.35.02-1.15-.47-.8-1.85,1.34-4.92-2.09-6.13-3.18-2.07-1.87-3.78-3.93-5.55-6.07-1.47-1.77-3.22-2.88-5.38-3.62-2.33-.8-4.78-1.26-6.81-2.74l-.36.85c3.29,1.2,6.73.53,10.13.45,3.99-.08,7.94.61,11.8,1.54,1.81.44,3.64.87,5.41,1.45s3.89,1.73,3.74,3.88c-.1,1.51-2.16,2.54-3.03,3.67-1.21,1.57-2.11,2.94-3.92,3.88-.53.28-.06,1.08.47.8h0Z"/>
        </g>
        <g>
          <path class="cls-7" d="M2.8,83.7c-.99.23-1.59,1.31-1.13,2.21.42.81,1.43,1.15,2.34,1.11s1.79-.36,2.69-.53c4.28-.77,8.84,2.16,12.87.54.47-.19.92-.44,1.41-.57,1.15-.32,2.36.02,3.5.35-1.39-.6-1.34-2.75-2.57-3.63-.48-.34-1.1-.44-1.61-.74-1.22-.72-1.5-2.32-2.07-3.61-.21-.46-.47-.91-.87-1.21-1.15-.87-3.12.14-3.08,1.58-.56-1.49-2.12-2.55-3.71-2.51-1.59.04-3.1,1.18-3.58,2.7-.45-.71-1.38-1-2.22-.89-.83.12-1.58.57-2.25,1.08-.53.4-1.05.87-1.25,1.5s.03,1.44.65,1.67c.27.1.57.09.82.23s.33.63.06.72"/>
          <path class="cls-7" d="M2.67,83.25c-1.64.54-2.23,2.54-.74,3.65,1.91,1.43,4.63-.14,6.75-.06,2.57.1,5.03,1.02,7.61,1.14,1.16.06,2.33-.07,3.41-.5.68-.27,1.31-.63,2.06-.68.88-.05,1.77.22,2.61.46.5.14.83-.6.36-.85-1.34-.71-1.28-2.65-2.48-3.56-.8-.61-1.82-.63-2.44-1.53-.49-.71-.7-1.58-1.03-2.37-.51-1.21-1.33-2.29-2.78-2.09-1.21.17-2.12,1.12-2.2,2.33l.86-.23c-1.59-3.75-6.78-3.43-8.14.3l.85-.11c-1.47-1.92-3.9-1.03-5.46.3-.69.59-1.28,1.35-1.18,2.31.05.45.24.89.59,1.18.11.09,1,.55,1.13.43-.43.42.23,1.07.66.66.29-.29.37-.63.21-1.01-.22-.52-.58-.42-1.02-.64-1.61-.84.19-2.29,1.03-2.81.98-.6,2.4-1.03,3.24.06.25.32.7.29.85-.11,1.12-3.07,5.21-2.99,6.44-.08.2.46.84.17.86-.23.05-.8.84-1.48,1.65-1.43,1.07.06,1.44,1.29,1.76,2.12.38.99.73,2.07,1.61,2.74.5.38,1.08.49,1.62.78.63.34.92.93,1.2,1.55.41.9.76,1.78,1.68,2.26l.36-.85c-.92-.27-1.88-.54-2.85-.49s-1.75.53-2.65.84c-2.05.69-4.25.23-6.31-.19-1.82-.37-3.7-.78-5.57-.57-.98.11-1.92.46-2.9.56-.61.07-1.27.04-1.79-.33-.85-.62-.64-1.72.37-2.05.56-.18.32-1.08-.25-.89h0Z"/>
        </g>
        <g>
          <path class="cls-7" d="M17.16,91.7c4.32-2.21,9.77-2.06,13.96.39,1.66.97,3.14,2.28,4.93,2.98,1.92.76,4.06.76,6.01,1.44,5.61,1.95,8.21,8.78,13.63,11.22-3.09-.33-6.23-.65-9.28-.09-.98.18-1.98.45-2.96.27-1.52-.28-2.63-1.54-3.9-2.42-2.25-1.55-5.09-1.89-7.72-2.66-5.74-1.67-11.77-5.73-14.78-10.89"/>
          <path class="cls-7" d="M17.39,92.1c3.86-1.9,8.51-2.01,12.42-.18,1.75.82,3.2,2.1,4.89,3.02s3.62,1.17,5.53,1.57c6.81,1.42,9.25,8.81,15.23,11.62l.23-.86c-2.01-.21-4.03-.42-6.05-.39-.89.01-1.78.08-2.67.21-1.01.14-2.08.5-3.1.41-1.91-.17-3.2-1.95-4.78-2.84-1.41-.79-2.98-1.22-4.54-1.6-6.82-1.69-13.39-5.13-17.1-11.35-.31-.51-1.11-.05-.8.47,3.62,6.06,10.12,9.92,16.85,11.58,1.87.46,3.81.89,5.47,1.92,1.45.89,2.61,2.35,4.36,2.69,1.87.36,3.96-.47,5.85-.54,2.18-.07,4.35.15,6.51.38.45.05.64-.67.23-.86-3.24-1.52-5.39-4.42-7.78-6.96s-4.98-4.27-8.54-4.92c-2.34-.43-4.2-1.07-6.18-2.4-1.63-1.1-3.25-2.11-5.14-2.7-3.76-1.16-7.85-.79-11.37.95-.54.26-.07,1.06.47.8h0Z"/>
        </g>
        <g>
          <path class="cls-7" d="M46.97,110.06c2.49,1.11,4.54,3.16,5.66,5.64.64,1.42,1.29,3.23,2.83,3.41.74.09,1.51-.31,1.87-.96s.28-1.52-.19-2.09c1.94.22,3.87-1.49,3.9-3.44,0-.2-.01-.4-.1-.57-.1-.2-.29-.33-.47-.45-1.21-.79-2.69-1.16-4.12-1.02-.41.04-.82.12-1.22.09-.66-.05-1.26-.39-1.88-.62-1.88-.71-3.96-.47-5.95-.23"/>
          <path class="cls-7" d="M46.74,110.46c1.6.74,3.01,1.81,4.11,3.19s1.49,2.89,2.36,4.3c.72,1.16,1.97,2.02,3.36,1.45s1.85-2.35.97-3.58l-.4.7c1.59.12,3.16-.79,3.91-2.19.34-.64.6-1.5.41-2.23-.21-.8-1.18-1.21-1.87-1.49-.87-.36-1.82-.54-2.76-.53-.53,0-1.05.14-1.58.12-.59-.03-1.11-.3-1.65-.52-2.03-.81-4.2-.59-6.31-.34-.59.07-.59,1,0,.93,1.68-.2,3.45-.43,5.12,0,.77.19,1.46.62,2.23.79s1.53-.04,2.31-.04c.84,0,1.68.17,2.45.52.36.16,1.01.43,1.17.82.12.3-.03.8-.13,1.09-.47,1.37-1.86,2.26-3.29,2.15-.33-.03-.6.42-.4.7,1.08,1.5-.79,3.12-2.15,1.93-.89-.79-1.23-2.1-1.75-3.13-1.19-2.38-3.22-4.31-5.64-5.42-.54-.25-1.01.55-.47.8h0Z"/>
        </g>
        <g>
          <path class="cls-7" d="M1.37,92.36c3.23-1.08,6.71-1.44,10.09-1.04,1.57.19,3.49.95,3.51,2.53,0,.48-.18.95-.09,1.42.21,1.09,1.63,1.34,2.57,1.94,1.36.88,1.75,2.7,2.84,3.9.65.73,1.54,1.21,2.42,1.63,2.79,1.35,5.75,2.33,8.8,2.92-1.84.12-3.68.24-5.52.37-.71.05-1.45.09-2.13-.12-.56-.17-1.05-.51-1.61-.69-2.04-.66-4.51.87-6.29-.31-.41-.27-.72-.65-1.09-.97-.91-.78-2.11-1.12-3.25-1.49-2.82-.91-5.55-2.13-8.11-3.62-.69-.4-1.42-.89-1.65-1.66s.41-1.78,1.18-1.57c-.86-.27-.9-1.73-.06-2.05-.42.19-.95.29-1.33.03s-.4-.99.05-1.11"/>
          <path class="cls-7" d="M1.49,92.8c3.3-1.07,7.39-1.77,10.81-.86.69.18,1.49.49,1.91,1.1.51.75.08,1.42.2,2.22.15.98,1,1.43,1.81,1.84,1.39.69,2.02,1.63,2.77,2.95.68,1.19,1.52,2.05,2.72,2.72,2.96,1.65,6.35,2.69,9.66,3.35l.12-.91c-1.46.1-2.91.19-4.37.29-.67.04-1.34.13-2.01.12-.87-.01-1.51-.34-2.29-.65-2.19-.88-4.97.82-6.88-.65-.85-.66-1.49-1.3-2.51-1.72-1.24-.51-2.55-.85-3.81-1.33-1.35-.52-2.67-1.11-3.95-1.77-.66-.34-1.32-.69-1.95-1.07-.2-.12-.4-.23-.59-.37-.29-.17-.5-.39-.64-.69-.43-.46-.26-.89.53-1.3.45.04.64-.67.23-.86-.52-.25-.6-.96-.06-1.25.45-.25.14-1.03-.36-.85-.34.22-.65.15-.93-.23.52-.3.05-1.1-.47-.8s-.72.92-.42,1.48c.41.79,1.35.71,2.07.45l-.36-.85c-1.11.61-1.1,2.3.06,2.85l.23-.86c-.93-.08-1.63.68-1.68,1.59-.07,1.19,1.01,1.96,1.92,2.5,3.03,1.82,6.28,2.87,9.55,4.12.98.37,1.61.88,2.37,1.55.47.42.96.71,1.57.85,1.35.31,2.71-.2,4.06-.23.94-.02,1.63.35,2.48.69.74.29,1.44.34,2.23.32,1.98-.06,3.97-.26,5.95-.39.49-.03.67-.8.12-.91-1.83-.36-3.62-.84-5.37-1.48s-3.94-1.35-5.34-2.66c-1.01-.94-1.41-2.32-2.27-3.39-.39-.49-.82-.82-1.36-1.12-.68-.38-1.48-.53-1.81-1.29-.26-.61.05-1.22-.08-1.87-.09-.46-.33-.88-.66-1.22-.8-.84-2.04-1.18-3.15-1.33-3.46-.48-7.03-.03-10.34,1.04-.57.18-.32,1.08.25.89h0Z"/>
        </g>
        <g>
          <path class="cls-7" d="M25.61,109.66c1-1.09,2.65-.99,4.12-1.16,1.68-.19,3.38-.39,5.05-.15,1.56.22,3.05.82,4.52,1.4,1.37.55,2.74,1.1,4.11,1.65,1.25.5,2.52,1.01,3.57,1.86.92.74,1.63,1.7,2.33,2.65.53.71,1.05,1.43,1.58,2.14.83,1.13,1.67,2.69.84,3.81-.72.97-2.19.87-3.35.54-1.16-.33-2.45-.78-3.51-.22-.49.26-.87.7-1.38.92-.76.32-1.63.08-2.4-.21-3.4-1.27-6.49-3.25-9.54-5.21-2.17-1.4-4.41-2.86-5.79-5.04-.57-.9-.73-2.1-.13-2.98"/>
          <path class="cls-7" d="M25.94,109.99c.79-.75,1.82-.85,2.86-.94s2-.22,3-.29c2.17-.15,4.14.2,6.17.97s4.02,1.57,6.01,2.41c2.13.89,3.56,2.16,4.93,4.01.93,1.26,3.88,4.22,2.12,5.75-1.24,1.07-3.81-.53-5.23-.42-.66.05-1.19.3-1.72.68-1.1.79-2.1.6-3.3.13-2-.78-3.9-1.83-5.74-2.94s-3.73-2.27-5.48-3.54c-1.61-1.17-4.84-3.61-3.54-5.9.29-.52-.51-.99-.8-.47-2.22,3.92,4.28,7.5,6.85,9.15,2.29,1.47,4.61,2.92,7.1,4.03.96.43,2,.96,3.05,1.08,1.15.13,1.68-.35,2.59-.93,1.95-1.24,4.3,1.07,6.41.08,1.74-.82,1.41-2.81.61-4.19-.6-1.04-1.41-2-2.12-2.97s-1.47-2-2.45-2.78c-1.9-1.52-4.47-2.24-6.7-3.13-2.74-1.1-5.31-2.11-8.3-1.96-1.4.07-2.82.23-4.21.39-1.06.13-1.98.39-2.76,1.14-.43.41.22,1.07.66.66h0Z"/>
        </g>
        <g>
          <path class="cls-7" d="M41.12,125.46c.82.95,1.71,2.08,2.53,3.03.38.44.8.9,1.36,1.01.57.11,1.26-.36,1.13-.92-.03-.14-.11-.27-.1-.41.04-.39.62-.36,1-.28,1.25.27,2.63-.27,3.37-1.31.15-.21.28-.46.23-.71-.05-.26-.27-.45-.48-.6-1.42-.99-3.39-1.12-4.93-.33-.6.31-1.23.76-1.88.58-.35-.1-.64-.37-.99-.47-.75-.2-1.54-.31-1.25.41"/>
          <path class="cls-7" d="M40.79,125.79c.73.85,1.43,1.73,2.15,2.59.56.66,1.22,1.58,2.18,1.61.72.02,1.51-.52,1.49-1.29,0-.04-.01-.18-.03-.23-.08-.19-.13-.12,0-.15.14-.04.33.04.47.06.44.07.89.07,1.33,0,1.45-.26,3.91-2.16,2.01-3.49-1.51-1.06-3.6-1.18-5.26-.4-.49.23-1.08.73-1.65.6-.24-.06-.46-.24-.69-.35s-.46-.17-.7-.21c-.37-.07-.83-.15-1.16.07-.36.23-.38.64-.26,1.01.19.56,1.09.32.89-.25-.09-.25-.07.1-.14.02.01.01.11,0,.12,0,.11.05.3.04.43.07.38.09.67.29,1.02.44.72.31,1.41.04,2.06-.31,1.38-.73,2.93-.94,4.37-.2.24.13.78.35.76.69s-.53.73-.77.9c-.56.4-1.27.61-1.96.54-.54-.05-1.23-.29-1.66.18-.19.21-.24.49-.18.76.04.17.13.26.03.42-.07.12-.27.19-.39.2-.41.04-.77-.35-1.02-.62-.31-.34-.6-.7-.9-1.05-.63-.75-1.24-1.52-1.88-2.26-.39-.45-1.04.2-.66.66h0Z"/>
        </g>
        <g>
          <path class="cls-7" d="M22.25,126.67c.13-.28.08-.66-.14-.93,1.77.16,3.68.28,5.09-.64.39-.26.74-.59,1.19-.76,1.34-.5,2.96.67,4.42.52.87-.09,1.61-.66,2.5-.67,1.27-.02,2.38,1.05,3.31,2.03.75.79,1.5,1.59,2.24,2.38.36.39.73.78.94,1.26.55,1.26-.5,2.74-1.81,2.57-.34-.05-.71-.17-.99-.01-.31.18-.34.61-.49.94-.29.63-1.07.85-1.79.84-.72,0-1.46-.19-2.16-.09-.49.07-.95.27-1.45.3-.97.07-1.93-.49-2.82-1.03-.71-.43-1.42-.86-2.13-1.3-.29-.18-.59-.36-.82-.62-.35-.4-.48-.94-.78-1.39-1.13-1.74-4.24-1.7-4.75-3.66.12-.15.24-.3.36-.44"/>
          <path class="cls-7" d="M22.67,126.79c.13-.48.07-.84-.18-1.27l-.38.66c1.49.13,3.09.26,4.51-.3.61-.24,1.05-.65,1.61-.97.86-.48,1.78-.13,2.66.11.62.17,1.26.33,1.92.28.7-.06,1.3-.42,1.98-.59,1.84-.45,3.29,1.58,4.4,2.75.88.93,3.72,3.3,1.55,4.42-.6.31-1.25-.15-1.86.12-.54.24-.56.84-.9,1.26-.61.75-1.68.46-2.54.41s-1.53.26-2.34.31c-.95.06-1.81-.5-2.59-.97-.71-.43-1.45-.83-2.13-1.3-.53-.36-.85-.73-1.14-1.29-.17-.33-.32-.64-.57-.92-.37-.42-.84-.74-1.34-1-1.06-.57-2.69-.92-3.1-2.2l-.11.43c.12-.15.24-.3.36-.44.35-.44-.27-1.06-.62-.62-.42.52-.61.74-.28,1.37.28.53.74.91,1.25,1.22,1.37.83,2.87,1.08,3.65,2.62.44.87.93,1.28,1.76,1.79.95.58,1.89,1.22,2.89,1.71.72.35,1.46.57,2.27.45.42-.06.82-.21,1.24-.26.7-.08,1.37.09,2.07.08.62,0,1.27-.12,1.76-.53.23-.19.3-.4.46-.63s.34-.59.68-.66c.17-.03.45.08.63.07,1.3-.05,2.27-1.31,2.12-2.57-.09-.77-.59-1.36-1.09-1.91-.77-.84-1.56-1.67-2.35-2.5-1.06-1.11-2.39-2.4-4.06-2.12-.59.1-1.12.4-1.7.54-.66.16-1.26.05-1.89-.12-.87-.23-1.81-.59-2.73-.38-.97.23-1.64,1.07-2.6,1.35-1.23.36-2.58.22-3.83.11-.34-.03-.54.39-.38.66l.09.59c-.15.54.69.78.85.23h0Z"/>
        </g>
        <g>
          <path class="cls-7" d="M2.56,113.26c.58,1.73,2.69,2.27,4.37,3,1.47.63,2.8,1.6,3.86,2.79.98,1.11,1.73,2.4,2.74,3.48,1.01,1.08,2.38,1.97,3.86,1.88,1.05-.06,2-.6,2.95-1.04,3.93-1.77,8.39-1.84,12.7-1.87-3.56-1.86-7.27-3.84-9.57-7.13-1.03-1.48-1.75-3.18-2.98-4.49-1.23-1.31-3.25-2.15-4.85-1.32.3-.81-.46-1.71-1.32-1.85s-1.7.25-2.45.69c.12-.79-.66-1.48-1.46-1.58s-1.57.24-2.3.56c-1.15.51-2.48,1.29-2.44,2.55.02.48.22,1.06-.13,1.39-.26.25-.68.19-1.05.24-1.3.18-1.66,2.32-.49,2.92"/>
          <path class="cls-7" d="M2.12,113.38c.95,2.37,3.66,2.68,5.66,3.81,1.6.91,2.77,2.2,3.85,3.66.85,1.16,1.7,2.34,2.91,3.14,2.84,1.9,5.22-.1,8.01-.95,3.39-1.03,6.98-1.05,10.5-1.08.44,0,.65-.65.23-.86-3.89-2.03-7.74-4.16-10.08-8.02-1.63-2.68-4.03-6.6-7.79-4.93l.68.52c.2-.93-.21-1.77-1.07-2.21-1.13-.58-2.37-.04-3.38.52l.7.4c-.02-3.75-6.13-1.52-6.98.71-.13.34-.09.62-.13.97-.06.53.23.26-.34.74-.52.44-.27.16-.63.33-.5.24-.86.42-1.14.93-.54.98-.29,2.21.65,2.81.5.32.97-.48.47-.8-.46-.29-.58-.83-.41-1.33.21-.65.57-.63,1.17-.78.65-.16,1.06-.31,1.2-1.03.06-.35-.08-.68-.06-1.02.05-.82.62-1.27,1.26-1.67.86-.53,3.99-2.01,4,.14,0,.36.39.57.7.4.45-.25.91-.52,1.43-.58.67-.07,1.91.03,1.66,1.22-.09.42.31.69.68.52,4.08-1.82,6.24,4.74,8.25,6.99,2.36,2.65,5.57,4.34,8.67,5.96l.23-.86c-2.94.02-5.91.06-8.81.64-1.34.27-2.66.66-3.91,1.21-1.72.75-3.15,1.53-4.97.53-2.47-1.36-3.54-4.42-5.77-6.13-1.01-.77-2.1-1.31-3.28-1.78-1.25-.5-2.74-1.01-3.28-2.36-.22-.55-1.12-.31-.89.25h0Z"/>
        </g>
        <g>
          <path class="cls-7" d="M1.79,100.18c-.84.3-1.17,1.39-.93,2.25s.89,1.54,1.52,2.18c-1.69.47-2.5,2.83-1.45,4.24.16.21.36.41.62.46.49.1.94-.36,1.1-.84s.15-1.01.33-1.48c.56-1.45,2.46-1.65,3.86-2.33.33-.16.69-.43.67-.79-.02-.44-.54-.66-.97-.79-1.74-.55-3.33-1.56-4.57-2.89-.46.45-.87.97-1.19,1.53"/>
          <path class="cls-7" d="M1.67,99.74c-.93.38-1.4,1.31-1.34,2.3.08,1.18.94,2.11,1.73,2.91l.2-.77C.89,104.58.01,105.94,0,107.34c0,.7.22,1.42.69,1.94.59.66,1.48.64,2.05-.03s.36-1.65.83-2.38c.39-.61,1.13-.89,1.78-1.13.68-.25,1.47-.44,2.07-.87.65-.47.78-1.33.1-1.85-.37-.28-.83-.38-1.25-.53-.47-.17-.93-.38-1.37-.62-.96-.53-1.83-1.21-2.58-2.01-.17-.18-.48-.17-.66,0-.49.49-.91,1.03-1.27,1.62-.31.51.5.98.8.47s.68-1,1.12-1.44h-.66c1.01,1.07,2.22,1.95,3.56,2.54.31.14.62.26.94.37.2.07.78.17.88.39.16.37-1.16.75-1.41.84-1.06.38-2.27.76-2.88,1.79-.37.63-.25,1.4-.58,2.02-.16.3-.43.5-.72.25-.22-.19-.35-.5-.43-.77-.32-1.15.33-2.55,1.5-2.9.33-.1.45-.52.2-.77-.57-.58-1.22-1.21-1.41-2.03-.13-.57.01-1.38.62-1.63.55-.22.31-1.12-.25-.89h0Z"/>
        </g>
        <g>
          <path class="cls-7" d="M28.55,136.84c-1.03.78-1.13.41-2.4.18-1.31-.24-2.45-1.02-3.74-1.33-1.02-.25-2.09-.2-3.13-.28-3.03-.25-5.94-1.69-7.97-3.96-.19-.21-.38-.45-.4-.73-.02-.28.12-.54.29-.76.61-.8,1.57-1.25,2.49-1.63.95-.4,1.94-.77,2.98-.83,1.03-.06,2.13.26,2.81,1.04.43.49.64,1.28.21,1.77-.22.25-.59.45-.57.78.47.22,1,.31,1.51.25.55-.07,1.07-.3,1.62-.38s1.19.04,1.49.51c.3.48.12,1.13.3,1.67.31.92,1.45,1.18,2.4,1.4s2.07.79,2,1.76c0,.13-.03.27.05.36s.3.01.23-.09"/>
          <path class="cls-7" d="M28.32,136.44c-.45.33-.68.45-1.23.33-.51-.11-1.05-.22-1.55-.38-1.23-.39-2.33-1.06-3.62-1.26-1.21-.18-2.44-.1-3.64-.31s-2.41-.64-3.5-1.23c-1.01-.54-2.27-1.3-2.94-2.26-1.07-1.51,1.53-2.39,2.56-2.79,1.16-.45,2.47-.83,3.69-.39.59.21,1.45.78,1.38,1.51-.05.53-.7.76-.78,1.3-.04.27.07.47.32.57.66.27,1.32.34,2.03.2.63-.13,1.67-.68,2.24-.13.45.44.18,1.56.58,2.13.26.39.67.64,1.09.82,1.07.47,2.88.37,3.05,1.82.04.34.1.68.5.76.33.06.64-.13.69-.46.1-.58-.8-.83-.89-.25l-.02.09.32-.32h.03c.11.11.22.22.32.32-.14-.44-.05-.85-.33-1.26-.25-.37-.65-.65-1.05-.84-.88-.43-2.54-.36-3.03-1.33-.29-.58-.02-1.29-.39-1.87-.23-.37-.62-.61-1.04-.71-.51-.12-1.02-.02-1.51.1-.83.21-1.5.36-2.34.02l.32.57c.06-.4.6-.67.73-1.08.15-.46.06-.98-.15-1.41-.47-.91-1.47-1.45-2.45-1.62-1.22-.21-2.42.11-3.55.55s-2.29.89-3.1,1.78c-.77.84-.7,1.64.04,2.46.85.94,1.88,1.74,2.98,2.37s2.22,1.07,3.41,1.34c1.33.31,2.67.26,4.01.41,1.61.18,2.98,1.12,4.55,1.47,1.11.25,1.78.48,2.76-.23.48-.35.02-1.15-.47-.8h0Z"/>
        </g>
        <g>
          <path class="cls-7" d="M5.44,124.73c.34.86.69,1.74,1.28,2.49s1.46,1.38,2.29,1.38c.48,0,.89-.19,1.29-.38.71-.33,1.41-.67,2.12-1,.24-.11.5-.27.47-.57-.03-.29-.33-.52-.59-.7-.51-.34-1.01-.68-1.52-1.02-.19-.13-.39-.27-.54-.45-.26-.32-.32-.73-.41-1.12-.44-1.96-1.93-3.89-3.76-4.88-1.14-.62-2.64-.79-3.17.16-.6,1.1.53,2.77,1.72,3.76.35.29.73.59.88,1,.08.23.07.46.09.68.09,1.49,1.22,3.09,2.65,3.77"/>
          <path class="cls-7" d="M5.04,124.84c.52,1.3,1.08,2.63,2.22,3.5.46.35,1.02.63,1.61.67.69.05,1.3-.27,1.9-.55.68-.32,1.53-.58,2.13-1.04.44-.33.5-.86.18-1.31-.37-.5-1.05-.83-1.56-1.17-.3-.2-.65-.38-.9-.64s-.31-.63-.38-.97c-.54-2.41-2.46-4.83-4.87-5.58-.94-.29-2.22-.32-2.8.64s-.04,2.21.57,3.04c.45.61.99,1.07,1.54,1.57.36.33.46.62.49,1.1.02.32.08.64.17.95.41,1.36,1.42,2.55,2.69,3.17.47.23.89-.48.42-.71-.97-.48-1.76-1.31-2.18-2.31-.2-.48-.24-.93-.29-1.44s-.28-.93-.66-1.29c-.78-.75-1.65-1.41-2.04-2.47-.13-.36-.22-.79-.02-1.15.23-.43.75-.49,1.19-.46,2.07.17,3.88,2.22,4.64,4.01.39.9.35,2,1.17,2.66.43.34.92.63,1.38.94.22.15.53.29.7.5.23.27-.06.32-.3.44-.69.33-1.39.67-2.09.99-.64.29-1.21.32-1.83-.03-1.22-.69-1.78-2.06-2.27-3.3-.19-.49-.99-.27-.8.22h0Z"/>
        </g>
      </g>
      <path class="cls-5" d="M48.29.3c-1.47.11-2.79,1.28-3.08,2.73,1.23.52,2.22,1.59,2.64,2.86.63-.38,1.07-1.05,1.17-1.78.6,2.84,1.85,5.55,3.61,7.86-.18-1.84-.36-3.68-.54-5.52,1.1,2.36,2.7,4.48,4.66,6.19-.7,2.35-1.41,4.71-2.11,7.06,1.06-1.28,2.41-2.32,3.92-3.02-1.8,3.46-3.59,6.93-5.39,10.39,1.29-.93,2.59-1.86,3.88-2.78-1.43,3.45-4.64,6.1-8.3,6.84.02,1.29,1.98,1.47,3.09.81s2.21-1.74,3.47-1.47c-1.21.4-2.21,1.41-2.59,2.63.46.51.92,1.03,1.39,1.54,1.09-1.3,2.19-2.6,3.28-3.9.48,2.11,1.82,4.01,3.64,5.18-1.72-4.1-2.7-8.51-2.88-12.95.68,2.26,1.59,4.45,2.73,6.52-.43-3.52-.86-7.05-1.3-10.57.46.19,1.05-.11,1.16-.59,2.03,4.26,2.49,9.25,1.27,13.82,1.02-1.29,2.03-2.58,3.05-3.86-.87,3.11-1.74,6.23-2.6,9.34,1.07-1.5,2.14-2.99,3.2-4.49.01,2.24.02,4.47.03,6.71.91-2.73,1.17-5.67.77-8.52,1.37,2.68,2.97,5.24,4.78,7.65-2.42-5.96-5.22-11.77-8.38-17.37,2.08.34,3.76,1.99,4.71,3.87.95,1.89,1.27,4.01,1.59,6.1-.54-1.15-.09-2.68,1-3.35,1.16,4.29,2.33,8.58,3.49,12.87.3-2.39.61-4.77.91-7.16,1.47,4.87,2.93,9.74,4.4,14.6.5-1.4,1-2.79,1.5-4.19.67,4.11,2.12,8.1,4.23,11.69-.3-2.21-.59-4.43-.89-6.64,1.8,3.11,3.75,6.13,5.85,9.04-.61-1.43-1.23-2.86-1.84-4.29,2.99,2.92,5.98,5.84,8.98,8.75-3.34-5.33-7.06-10.43-11.12-15.24,1.18,1.06,2.79,1.64,4.37,1.56-5.68-2.52-10.53-6.85-13.67-12.21,2.17,1.88,4.65,3.41,7.31,4.51-3.44-3.77-7.03-7.41-10.75-10.9,3.72,1.63,7.34,3.46,10.87,5.48-3.05-4.66-8.42-7.15-13.5-9.42,2.86-.16,5.75.39,8.35,1.6-1.98-3.27-5.67-5.44-9.49-5.58.34-.92,2.08-.51,1.97.47-1.31-3.35-3.8-6.23-6.94-7.99,3.22,2.23,6.44,4.45,9.66,6.68-2.45-5.09-7.8-8.65-13.45-8.96.55.06.93-.65.78-1.18s-.62-.91-1.06-1.25c-2.11-1.6-4.22-3.2-6.33-4.8,1.21-.05,2.43-.09,3.64-.14-3.25-1.24-6.26-3.12-8.8-5.49l-.34.3Z"/>
      <path class="cls-5" d="M80.7,49.9c-.42,1.55-.33,3.6-1.08,5.02.55-.59,1.1-1.19,1.66-1.78.3,1.68.03,3.45-.74,4.97.52-.49,1.04-.98,1.56-1.47.48,2.91.13,5.95-1.01,8.67.53-.31,1.06-.62,1.59-.93,0,3.51-.52,7.03-1.52,10.4.67-.68,1.34-1.37,2.01-2.05-.98,2.81-1.96,5.61-2.93,8.42.9-.63,1.67-1.46,2.24-2.4-.86,5.31-6.38,8.89-7.39,14.17,1.55-1.86,3.16-3.77,5.29-4.92-1.92,2.5-3.62,5.16-5.09,7.94,1.27-.97,2.54-1.93,3.93-2.73-2.25,2.83-4.37,5.76-6.33,8.8,1.14-.9,2.28-1.8,3.42-2.7-.81,2.32-2.33,4.39-4.31,5.86.93-.25,1.85-.49,2.78-.74-2.28,2.93-4.7,6.47-3.72,10.05,1.34-2.49,2.49-5.09,3.44-7.75-.32,1.54-.46,3.12-.39,4.69,2.24-2.77.41-7.38,2.66-10.14.29,1.84.45,3.7.48,5.57.95-1.73.86-3.82.72-5.79-.16-2.16-.36-4.43.52-6.41.31,1.71.63,3.42.94,5.13.25-3.26.51-6.51.76-9.77.52,1.07.93,2.2,1.21,3.36.16-2.43.1-4.88-.19-7.3,1.4,2.25,2.61,4.63,3.61,7.09-.61-3.18-1.52-6.31-2.72-9.32.6.54,1.2,1.09,1.8,1.63-.38-2.92-.77-5.83-1.15-8.75,1.55,1.61,2.87,3.44,3.91,5.41-.92-3.13-1.84-6.26-2.76-9.39,1.45,1.97,2.89,3.94,4.34,5.92-1.08-3.69-2.39-7.31-3.94-10.83,1.21,1.54,2.43,3.08,3.64,4.61-1.79-3.99-3.22-8.14-4.27-12.38,1.27,1.53,2.53,3.07,3.8,4.6.46-.23.27-.92.02-1.37-2.2-3.87-4.41-7.74-6.61-11.6-.15-.27-.23-1.48-.15-1.78Z"/>
      <path class="cls-5" d="M88.88,49.34c2.42-.22,6.65,1.64,8.97,2.36-1.76.55-3.53,1.11-5.29,1.66,3.33.48,6.65.96,9.98,1.43-1.93,1.08-4.32,1.3-6.42.6,4.39.12,8.75,1.01,12.84,2.61-1.93.59-4.05.57-5.97-.05,3.41,1.05,6.83,2.11,10.24,3.16-1.28.42-2.69.42-3.97,0,2.77.05,5.54.62,8.1,1.66-1.19.2-2.37.41-3.56.61,2.09-.57,4.39-.33,6.31.65-.93.5-2.04.66-3.08.45,2.24-.38,4.57-.16,6.71.61-1.19.23-2.38.46-3.57.69,2.46-.51,5.15.24,6.98,1.96-1.42-.39-2.83-.77-4.25-1.16,1.41.35,2.68,1.26,3.45,2.5-3.13-1.33-6.25-2.65-9.38-3.98.98.78,1.83,1.74,2.49,2.8-2.31-1.34-4.62-2.67-6.94-4.01.99,1.21,1.98,2.42,2.97,3.64-4.36-.94-7.07-6.15-11.52-6.44,1.35,1.48,2.69,2.96,4.04,4.44-3.63-1.85-6.93-4.32-9.72-7.29.18,1.01.66,1.97,1.36,2.73-4.93-2.11-7.97-7-10.71-11.6"/>
      <path class="cls-5" d="M85.21,53.89c1.31,4.36,2.61,8.73,3.92,13.09-.05-1.31.25-2.63.85-3.79,1,3.43,1.45,7.01,1.34,10.57.41-1.29.82-2.57,1.23-3.86.74.6.56,1.76.31,2.68-1,3.66-1.99,7.32-2.99,10.98,1.81-2.35,3.24-4.99,4.21-7.8.7,4.85-3.46,9.02-4.4,13.82,1.22-1.33,2.44-2.65,3.66-3.98-1.51,2.1-2.58,4.51-3.11,7.04.85-1.56,1.73-3.1,2.65-4.63-.19,2.3-.38,4.61-.57,6.91,1.26-2.55,1.81-5.44,1.57-8.28.39,1.76,1.04,3.46,1.92,5.03-.41-2.73-.83-5.47-1.24-8.2.8,1.8,1.77,3.53,2.9,5.14-.82-3.07-1.64-6.13-2.46-9.2,1,1.27,1.84,2.66,2.5,4.13-1.46-5.43-3.2-10.79-5.22-16.04-1.31-3.41-6.19-9.55-6.92-13.12"/>
      <path class="cls-5" d="M88.92,54.89c2.67,2.19,7.08,8.21,9.75,10.4-1.54-.75-3.08-1.5-4.63-2.26,2.43,1.71,4.35,4.14,5.45,6.9-1.5-1.1-2.93-2.3-4.29-3.57,1.94,2.64,4.14,5.08,6.55,7.28-1.9-.61-3.66-1.63-5.14-2.97,2.17,2.86,4.36,5.75,5.95,8.98-1.95-2.05-3.91-4.1-5.86-6.15,2.27,3.52,4.85,6.84,7.69,9.92-1.07-.76-2.15-1.51-3.22-2.27.91,1.98,1.83,3.95,2.74,5.93-1.12-1.49-2.25-2.97-3.37-4.46.57.96.65,2.2.22,3.23-.89-4.17-2.28-8.23-4.14-12.07.21,1.7.41,3.39.62,5.09-1.41-4.15-2.66-8.37-3.72-12.63.51.51.6,1.39.2,1.99-.76-4.78-2.38-9.17-4.8-13.35"/>
      <text class="cls-1" transform="translate(96.75 25.05)"><tspan x="0" y="0">Ca</tspan><tspan class="cls-6" x="35.07" y="0">t</tspan><tspan x="45.88" y="0">a</tspan><tspan class="cls-8" x="62.12" y="0">s</tspan><tspan x="76.55" y="0">trophic</tspan><tspan x="0" y="30">Wildfire</tspan><tspan x="0" y="60">Pr</tspan><tspan class="cls-3" x="28.52" y="60">e</tspan><tspan class="cls-10" x="44.27" y="60">v</tspan><tspan x="57.44" y="60">ention</tspan><tspan x="0" y="90">Conso</tspan><tspan class="cls-4" x="81.59" y="90">r</tspan><tspan x="92.61" y="90">tium</tspan></text>
      <text class="cls-2" transform="translate(96.75 137.85)"><tspan x="0" y="0">at Cr</tspan><tspan class="cls-9" x="40.24" y="0">o</tspan><tspan x="50.24" y="0">wdDoing</tspan></text>
    </g>
  </g>
</svg>